<?xml version="1.0" standalone="no"?><!DOCTYPE svg PUBLIC "-//W3C//DTD SVG 1.1//EN" "http://www.w3.org/Graphics/SVG/1.1/DTD/svg11.dtd"><svg t="1649922395797" class="icon" viewBox="0 0 1024 1024" version="1.1" xmlns="http://www.w3.org/2000/svg" p-id="23020" xmlns:xlink="http://www.w3.org/1999/xlink" width="64" height="64"><defs><style type="text/css">@font-face { font-family: feedback-iconfont; src: url("//at.alicdn.com/t/font_1031158_u69w8yhxdu.woff2?t=1630033759944") format("woff2"), url("//at.alicdn.com/t/font_1031158_u69w8yhxdu.woff?t=1630033759944") format("woff"), url("//at.alicdn.com/t/font_1031158_u69w8yhxdu.ttf?t=1630033759944") format("truetype"); }
</style></defs><path d="M520.533333 85.333333l341.333334 76.8c21.333333 4.266667 34.133333 21.333333 34.133333 42.666667v256c0 226.133333-153.6 422.4-371.2 477.866667H512c-226.133333-51.2-384-247.466667-384-477.866667v-256c0-21.333333 12.8-38.4 34.133333-42.666667l341.333334-76.8h17.066666z m68.266667 388.266667c-17.066667 17.066667-46.933333 25.6-76.8 25.6s-55.466667-8.533333-76.8-25.6c-76.8 8.533333-132.266667 68.266667-136.533333 149.333333v8.533334c0 25.6 21.333333 46.933333 46.933333 51.2h328.533333c25.6 0 46.933333-21.333333 51.2-46.933334v-4.266666c0-81.066667-59.733333-149.333333-136.533333-157.866667zM512 256c-55.466667 0-102.4 46.933333-102.4 102.4 0 55.466667 46.933333 102.4 102.4 102.4 55.466667 0 102.4-46.933333 102.4-102.4C614.4 302.933333 567.466667 256 512 256z" p-id="23021"></path></svg>