<?xml version="1.0" standalone="no"?><!DOCTYPE svg PUBLIC "-//W3C//DTD SVG 1.1//EN" "http://www.w3.org/Graphics/SVG/1.1/DTD/svg11.dtd"><svg t="1649935838526" class="icon" viewBox="0 0 1024 1024" version="1.1" xmlns="http://www.w3.org/2000/svg" p-id="10965" width="64" height="64" xmlns:xlink="http://www.w3.org/1999/xlink"><defs><style type="text/css">@font-face { font-family: feedback-iconfont; src: url("//at.alicdn.com/t/font_1031158_u69w8yhxdu.woff2?t=1630033759944") format("woff2"), url("//at.alicdn.com/t/font_1031158_u69w8yhxdu.woff?t=1630033759944") format("woff"), url("//at.alicdn.com/t/font_1031158_u69w8yhxdu.ttf?t=1630033759944") format("truetype"); }
</style></defs><path d="M796.829353 514.035785q45.805169 0 86.520875 17.304175t71.252485 47.840954 48.349901 71.252485 17.813121 86.520875-17.813121 86.520875-48.349901 71.252485-71.252485 48.349901-86.520875 17.813121q-46.823062 0-87.538767-17.813121t-71.252485-48.349901-47.840954-71.252485-17.304175-86.520875 17.304175-86.520875 47.840954-71.252485 71.252485-47.840954 87.538767-17.304175zM907.779651 771.562624q15.26839 0 25.956262-9.161034t10.687873-24.429423-10.687873-25.956262-25.956262-10.687873l-219.864811 0q-15.26839 0-25.956262 10.687873t-10.687873 25.956262 10.687873 24.429423 25.956262 9.161034l219.864811 0zM500.622594 829.582505q4.071571 20.357853 13.232604 42.751491t26.974155 45.296223 44.787276 45.296223 68.707753 41.733598q-27.483101 6.107356-64.127237 10.178926-31.554672 4.071571-76.341948 6.616302t-102.807157 2.544732q-29.518887 0-68.198807-2.035785t-80.413519-5.59841-82.449304-8.652087-74.306163-10.178926-57.001988-10.178926-29.518887-10.178926q-10.178926-8.143141-15.777336-49.87674t4.580517-107.89662q6.107356-37.662028 30.536779-57.510934t57.510934-31.554672 68.198807-20.866799 62.600398-26.465209q21.375746-13.232604 33.081511-25.956262t16.286282-24.93837 4.580517-25.447316-1.017893-29.518887q-2.035785-23.411531-16.286282-37.153082t-30.536779-27.992048q-8.143141-7.125249-14.759443-19.848907t-11.705765-25.956262q-5.089463-15.26839-10.178926-32.572565-7.125249-2.035785-14.250497-7.125249-6.107356-5.089463-12.723658-14.250497t-11.705765-26.465209q-6.107356-17.304175-4.580517-31.554672t5.59841-25.447316 13.232604-21.375746q0-38.67992 4.071571-77.359841 4.071571-32.572565 14.250497-70.234592t31.554672-67.180915q19.33996-28.500994 43.260437-46.823062t48.349901-28.500994 49.367793-13.741551 48.349901-3.562624q29.518887 0 57.001988 7.125249t50.894632 18.322068 41.733598 25.447316 29.518887 28.500994q26.465209 32.572565 38.67992 71.761431t17.304175 74.815109q5.089463 40.715706 5.089463 82.449304 7.125249 5.089463 11.196819 13.232604 4.071571 7.125249 6.616302 18.322068t0.508946 28.500994q-2.035785 21.375746-8.652087 34.099404t-14.759443 19.848907q-9.161034 8.143141-19.33996 11.196819-5.089463 17.304175-10.178926 32.572565-5.089463 13.232604-11.705765 25.956262t-14.759443 19.848907q-9.161034 8.143141-14.250497 16.286282t-8.143141 16.286282-6.616302 17.813121-10.687873 19.848907q-47.840954 73.28827-55.475149 132.326044t5.59841 115.021869z" p-id="10966"></path></svg>