<?xml version="1.0" standalone="no"?><!DOCTYPE svg PUBLIC "-//W3C//DTD SVG 1.1//EN" "http://www.w3.org/Graphics/SVG/1.1/DTD/svg11.dtd"><svg t="1630920300850" class="icon" viewBox="0 0 1024 1024" version="1.1" xmlns="http://www.w3.org/2000/svg" p-id="20885" width="64" height="64" xmlns:xlink="http://www.w3.org/1999/xlink"><defs><style type="text/css"></style></defs><path d="M620.013898 0.002925a82.618558 82.618558 0 0 1 60.465086 25.553262c14.257185 14.768981 22.848053 34.217244 24.383442 54.835326l0.255898 7.786616v203.804629a88.687001 88.687001 0 0 1-24.63934 62.695057 82.764786 82.764786 0 0 1-52.934368 25.297363l-7.494161 0.219342h-76.513559v106.307419h303.970492l4.240599 4.423383V643.404086h81.704636c44.709069 0.877365 82.36266 35.094609 89.345025 81.156282l0.804251 6.945808v203.877743a88.760115 88.760115 0 0 1-24.675897 62.6585c-14.184071 14.695867-32.901196 23.652304-52.861254 25.297364l-7.530718 0.255898h-232.209328a82.618558 82.618558 0 0 1-60.465087-25.553262 88.46766 88.46766 0 0 1-24.383442-54.835326l-0.219341-7.786617v-203.804629a88.687001 88.687001 0 0 1 24.602783-62.695056 82.764786 82.764786 0 0 1 52.934368-25.297364l7.494162-0.219341h76.477001v-85.323768H230.683082V643.404086h86.639815a82.472331 82.472331 0 0 1 60.42853 25.516705c14.257185 14.768981 22.848053 34.2538 24.383442 54.835326l0.219341 7.750059v203.877743a88.687001 88.687001 0 0 1-24.602783 62.6585 82.801343 82.801343 0 0 1-52.934368 25.297364L317.322897 1023.595681H85.113569a82.618558 82.618558 0 0 1-60.428529-25.553262 88.46766 88.46766 0 0 1-24.419999-54.835326L0.009143 935.420476v-203.804629a88.760115 88.760115 0 0 1 24.675897-62.695056 82.764786 82.764786 0 0 1 52.897811-25.297364l7.494161-0.219341H166.708535v-152.442207l4.240598-4.45994h308.942228v-106.124635h-86.712929a82.472331 82.472331 0 0 1-60.501643-25.589819 88.46766 88.46766 0 0 1-24.310328-54.762212l-0.255898-7.75006V88.251243A88.687001 88.687001 0 0 1 332.786459 25.592743c14.184071-14.695867 32.901196-23.652304 52.861255-25.260806L393.105318 0.002925h226.90858z" p-id="20886"></path></svg>