<?xml version="1.0" standalone="no"?><!DOCTYPE svg PUBLIC "-//W3C//DTD SVG 1.1//EN" "http://www.w3.org/Graphics/SVG/1.1/DTD/svg11.dtd"><svg t="1640055835875" class="icon" viewBox="0 0 1024 1024" version="1.1" xmlns="http://www.w3.org/2000/svg" p-id="3339" width="64" height="64" xmlns:xlink="http://www.w3.org/1999/xlink"><defs><style type="text/css"></style></defs><path d="M622.957714 134.144a31.670857 31.670857 0 0 0-31.670857 31.670857v311.954286a276.260571 276.260571 0 0 1 158.427429-23.844572V165.814857a31.670857 31.670857 0 0 0-31.670857-31.670857h-95.085715zM512 245.101714v289.206857a276.48 276.48 0 0 0-76.434286 154.477715h-50.322285a31.670857 31.670857 0 0 1-31.744-31.670857V245.101714c0-17.554286 14.262857-31.744 31.744-31.744h95.085714c17.554286 0 31.670857 14.189714 31.670857 31.744zM147.529143 768h288.036571c4.022857 28.013714 12.214857 54.637714 23.917715 79.213714H147.529143a31.670857 31.670857 0 0 1-31.670857-31.670857v-15.872c0-17.481143 14.189714-31.670857 31.670857-31.670857z m0-475.428571a31.670857 31.670857 0 0 0-31.670857 31.670857v332.8c0 17.554286 14.189714 31.670857 31.670857 31.670857h95.085714c17.554286 0 31.670857-14.189714 31.670857-31.670857v-332.8a31.670857 31.670857 0 0 0-31.670857-31.670857h-95.085714z m562.614857 633.856a198.070857 198.070857 0 1 0 0-396.141715 198.070857 198.070857 0 0 0 0 396.141715zM627.858286 691.931429h18.285714v-18.285715a64 64 0 0 1 63.926857-64.073143 64 64 0 0 1 64 64v18.358858h18.285714a18.285714 18.285714 0 0 1 18.285715 18.285714v100.571428a36.571429 36.571429 0 0 1-36.571429 36.571429h-128a36.571429 36.571429 0 0 1-36.571428-36.571429V710.217143a18.285714 18.285714 0 0 1 18.285714-18.285714z m88.722285 102.4a9.142857 9.142857 0 0 0 2.633143-6.436572v-36.571428a9.142857 9.142857 0 0 0-18.285714 0v36.571428a9.142857 9.142857 0 0 0 15.652571 6.509714z m-6.509714-166.4a45.714286 45.714286 0 0 1 45.714286 45.641142v18.285715h-91.428572v-18.285715a45.714286 45.714286 0 0 1 45.714286-45.714285z" p-id="3340"></path></svg>