<?xml version="1.0" standalone="no"?><!DOCTYPE svg PUBLIC "-//W3C//DTD SVG 1.1//EN" "http://www.w3.org/Graphics/SVG/1.1/DTD/svg11.dtd"><svg t="1640055453106" class="icon" viewBox="0 0 1024 1024" version="1.1" xmlns="http://www.w3.org/2000/svg" p-id="2691" width="64" height="64" xmlns:xlink="http://www.w3.org/1999/xlink"><defs><style type="text/css"></style></defs><path d="M192 304h288v64H192zM544 304h288v64H544z" p-id="2692"></path><path d="M368 192v288h-64V192z" p-id="2693"></path><path d="M832 128H192a64.19 64.19 0 0 0-64 64v640a64.19 64.19 0 0 0 64 64h640a64.19 64.19 0 0 0 64-64V192a64.19 64.19 0 0 0-64-64zM480 778l-54 54-90-90-90 90-54-54 90-90-90-90 54-54 90 90 90-90 54 54-90 90z m0-410H368v112h-64V368H192v-64h112V192h64v112h112z m352 432H544v-64h288z m0-128H544v-64h288z m0-304H544v-64h288z" p-id="2694"></path></svg>