<?xml version="1.0" standalone="no"?><!DOCTYPE svg PUBLIC "-//W3C//DTD SVG 1.1//EN" "http://www.w3.org/Graphics/SVG/1.1/DTD/svg11.dtd"><svg t="1631008384479" class="icon" viewBox="0 0 1024 1024" version="1.1" xmlns="http://www.w3.org/2000/svg" p-id="14325" width="64" height="64" xmlns:xlink="http://www.w3.org/1999/xlink"><defs><style type="text/css"></style></defs><path d="M262.4 620.8c-9.6 9.6-14.4 22.4-14.4 40 0 14.4 4.8 27.2 16 36.8 11.2 9.6 24 14.4 41.6 14.4 24 0 43.2-8 59.2-25.6s24-38.4 24-64V592l-72 9.6c-27.2 4.8-44.8 11.2-54.4 19.2zM832 96H192c-70.4 0-128 57.6-128 128v576c0 70.4 57.6 128 128 128h640c70.4 0 128-57.6 128-128V224c0-70.4-57.6-128-128-128zM443.2 748.8h-54.4v-48h-1.6c-20.8 36.8-52.8 56-94.4 56-30.4 0-54.4-8-72-24s-27.2-38.4-27.2-65.6c0-57.6 33.6-91.2 102.4-100.8l92.8-12.8c0-51.2-20.8-76.8-62.4-76.8-36.8 0-72 12.8-102.4 38.4v-52.8c30.4-19.2 67.2-28.8 107.2-28.8 75.2 0 112 40 112 118.4v196.8z m344-40c-25.6 30.4-60.8 46.4-102.4 46.4-40 0-72-17.6-92.8-51.2h-1.6v43.2h-54.4V288h54.4v203.2h1.6c24-40 59.2-60.8 107.2-60.8 38.4 0 70.4 14.4 92.8 41.6 22.4 27.2 35.2 65.6 35.2 112-1.6 52.8-14.4 94.4-40 124.8z m-104-232c-27.2 0-49.6 9.6-67.2 28.8-17.6 19.2-25.6 43.2-25.6 73.6v41.6c0 25.6 8 46.4 24 64s36.8 25.6 60.8 25.6c28.8 0 52.8-11.2 68.8-33.6 16-22.4 24-52.8 24-92.8 0-32-8-59.2-22.4-78.4-14.4-19.2-35.2-28.8-62.4-28.8z" p-id="14326"></path></svg>