<?xml version="1.0" standalone="no"?><!DOCTYPE svg PUBLIC "-//W3C//DTD SVG 1.1//EN" "http://www.w3.org/Graphics/SVG/1.1/DTD/svg11.dtd"><svg t="1649928051062" class="icon" viewBox="0 0 1024 1024" version="1.1" xmlns="http://www.w3.org/2000/svg" p-id="2539" width="64" height="64" xmlns:xlink="http://www.w3.org/1999/xlink"><defs><style type="text/css">@font-face { font-family: feedback-iconfont; src: url("//at.alicdn.com/t/font_1031158_u69w8yhxdu.woff2?t=1630033759944") format("woff2"), url("//at.alicdn.com/t/font_1031158_u69w8yhxdu.woff?t=1630033759944") format("woff"), url("//at.alicdn.com/t/font_1031158_u69w8yhxdu.ttf?t=1630033759944") format("truetype"); }
</style></defs><path d="M741.28021429 642.84545581c-9.53427437-9.5316853-24.98717772-9.52780169-34.5214521 0l-29.55819235 29.55819235-141.82443488-141.82314034 90.10763093-95.79065395c85.75668781 57.49173918 202.69750803 48.00406818 278.55745074-27.85458 64.83306572-64.83436027 80.29632537-160.57193813 47.81894922-240.28183766l-150.65706951 150.65836406-120.81925689-120.8192569 150.19491935-150.19362481c-79.96621811-32.22105758-173.93934032-15.59530256-238.35427018 48.82092183-76.02046546 76.02046546-85.05634259 193.63056197-27.07267888 279.51670361l-95.69744719 90.02219141-243.71236409-243.71365863-1.85118973-23.08550099-9.28960663-43.6207616-96.31235287-68.79046922-18.28276401-10.78997649-61.54364397 61.54364397 10.78868195 18.28405854 68.7865856 96.30458564 43.6272343 9.29607934 26.90827251 2.15799528 0.40001232-0.40001232L429.43500642 502.30520288 42.7564247 866.04715552c-7.46430768 7.46171859-7.87208723 19.96954738-0.40260141 27.43644413l64.19874196 64.20133104c7.46689675 7.46430768 19.97472553 7.05782267 27.4351496-0.40389594l363.74324717-386.6811708 140.63734328 140.63734328-33.01072592 33.00943138c-9.52780169 9.53427437-9.5316853 24.98717772 0 34.52145209l204.95906639 204.95518278c9.5316853 9.5316853 24.98717772 9.5316853 34.51886301 0l101.40118282-101.39988827c9.53039075-9.5316853 9.53039075-24.98717772 0-34.51886302L741.28021429 642.84545581zM132.95985147 905.09172432c-10.49741085 10.49999991-27.5167055 10.49999991-38.01282181 0-10.49741085-10.49999991-10.49741085-27.51929458 0-38.0128218 10.4961163-10.49999991 27.51541097-10.49999991 38.01282181 0 10.49741085 10.49352723 10.49741085 27.51282189 0 38.0128218z" p-id="2540"></path></svg>