<?xml version="1.0" standalone="no"?><!DOCTYPE svg PUBLIC "-//W3C//DTD SVG 1.1//EN" "http://www.w3.org/Graphics/SVG/1.1/DTD/svg11.dtd"><svg t="1650199002072" class="icon" viewBox="0 0 1024 1024" version="1.1" xmlns="http://www.w3.org/2000/svg" p-id="14244" width="64" height="64" xmlns:xlink="http://www.w3.org/1999/xlink"><defs><style type="text/css">@font-face { font-family: feedback-iconfont; src: url("//at.alicdn.com/t/font_1031158_u69w8yhxdu.woff2?t=1630033759944") format("woff2"), url("//at.alicdn.com/t/font_1031158_u69w8yhxdu.woff?t=1630033759944") format("woff"), url("//at.alicdn.com/t/font_1031158_u69w8yhxdu.ttf?t=1630033759944") format("truetype"); }
</style></defs><path d="M749.952 528.16l189.344 107.136c11.2 6.272 18.176 18.112 18.208 30.944v214.176a35.616 35.616 0 0 1-18.24 30.944l-189.312 107.04a37.184 37.184 0 0 1-36.448 0l-189.312-107.136a35.616 35.616 0 0 1-18.24-30.944v-214.176c0-12.8 6.88-24.64 18.24-30.944l189.312-107.2a37.184 37.184 0 0 1 36.48 0.064v0.096zM792.736 0.384c50.4 0 91.296 40 91.296 89.44V480a17.856 17.856 0 0 1-9.184 15.424c-5.664 3.2-12.576 3.2-18.24 0l-65.536-36.992a120.704 120.704 0 0 0-118.656 0l-189.12 107.008a115.968 115.968 0 0 0-59.36 100.8v268.16a18.144 18.144 0 0 1-18.24 17.888h-286.72a92.256 92.256 0 0 1-64.64-26.24 88.512 88.512 0 0 1-26.688-63.136V89.824C27.648 40.448 68.544 0.384 118.944 0.384h673.792z m-60.992 716.544a51.968 51.968 0 0 0-52.544 51.424c0 28.48 23.52 51.52 52.544 51.52a51.968 51.968 0 0 0 52.448-51.52 51.968 51.968 0 0 0-52.48-51.424z m-322.88-344.96H204.352a37.184 37.184 0 0 0 0 74.368h204.576a37.184 37.184 0 0 0 0-74.4z m278.976-185.984H204.32a37.184 37.184 0 1 0 0 74.368h483.52a37.184 37.184 0 0 0 0-74.368z" p-id="14245"></path></svg>