<?xml version="1.0" standalone="no"?><!DOCTYPE svg PUBLIC "-//W3C//DTD SVG 1.1//EN" "http://www.w3.org/Graphics/SVG/1.1/DTD/svg11.dtd"><svg t="1631007601087" class="icon" viewBox="0 0 1024 1024" version="1.1" xmlns="http://www.w3.org/2000/svg" p-id="13102" width="64" height="64" xmlns:xlink="http://www.w3.org/1999/xlink"><defs><style type="text/css"></style></defs><path d="M329.11 98.23m28.03 0l0 0q28.03 0 28.03 28.03l0 111.78q0 28.03-28.03 28.03l0 0q-28.03 0-28.03-28.03l0-111.78q0-28.03 28.03-28.03Z" p-id="13103"></path><path d="M723.62 98.23m28.03 0l0 0q28.03 0 28.03 28.03l0 111.78q0 28.03-28.03 28.03l0 0q-28.03 0-28.03-28.03l0-111.78q0-28.03 28.03-28.03Z" p-id="13104"></path><path d="M869.6 124.59h-67.3a56.36 56.36 0 0 1 8.81 30.34v83a56.69 56.69 0 0 1-56.7 56.7A56.7 56.7 0 0 1 697.7 238v-83a56.45 56.45 0 0 1 8.81-30.34H405.36a56.45 56.45 0 0 1 8.81 30.34v83a56.7 56.7 0 0 1-56.71 56.7 56.7 56.7 0 0 1-56.7-56.7v-83a56.45 56.45 0 0 1 8.81-30.34h-67.33a26.58 26.58 0 0 0-26.57 26.58v627.28a26.58 26.58 0 0 0 26.57 26.58H869.6a26.57 26.57 0 0 0 26.57-26.58V151.17a26.57 26.57 0 0 0-26.57-26.58zM544.11 671.67a32.21 32.21 0 0 1-32.21 32.21H352.27a32.21 32.21 0 0 1-32.21-32.21 32.22 32.22 0 0 1 32.21-32.21H511.9a32.22 32.22 0 0 1 32.21 32.21z m96-127.58a32.21 32.21 0 0 1-32.21 32.21H352.27a32.21 32.21 0 0 1-32.21-32.21 32.21 32.21 0 0 1 32.21-32.21h255.64a32.21 32.21 0 0 1 32.21 32.21zM768.15 416a32.21 32.21 0 0 1-32.21 32.21H352.27A32.21 32.21 0 0 1 320.06 416a32.21 32.21 0 0 1 32.21-32.21h383.67A32.21 32.21 0 0 1 768.15 416z" p-id="13105"></path><path d="M863.13 831.25H192V160a32 32 0 0 0-32-32 32 32 0 0 0-32 32v697.66a32.31 32.31 0 0 0-0.49 5.6A32.77 32.77 0 0 0 160 895.64a31.79 31.79 0 0 0 4.91-0.38h698.22a32 32 0 0 0 32-32 32 32 0 0 0-32-32.01z" p-id="13106"></path></svg>