<?xml version="1.0" standalone="no"?><!DOCTYPE svg PUBLIC "-//W3C//DTD SVG 1.1//EN" "http://www.w3.org/Graphics/SVG/1.1/DTD/svg11.dtd"><svg t="1648885036369" class="icon" viewBox="0 0 1024 1024" version="1.1" xmlns="http://www.w3.org/2000/svg" p-id="6044" width="64" height="64" xmlns:xlink="http://www.w3.org/1999/xlink"><defs><style type="text/css">@font-face { font-family: feedback-iconfont; src: url("//at.alicdn.com/t/font_1031158_u69w8yhxdu.woff2?t=1630033759944") format("woff2"), url("//at.alicdn.com/t/font_1031158_u69w8yhxdu.woff?t=1630033759944") format("woff"), url("//at.alicdn.com/t/font_1031158_u69w8yhxdu.ttf?t=1630033759944") format("truetype"); }
</style></defs><path d="M29.208976 555.694829l375.445853 235.707317a200.30439 200.30439 0 0 0 209.670244 0l383.875122-241.014634a41.521951 41.521951 0 0 0 20.042927-32.65561 38.837073 38.837073 0 0 0-37.026342-40.398048 37.463415 37.463415 0 0 0-24.163902 7.118048l-383.687805 241.014635a124.253659 124.253659 0 0 1-63.37561 17.358048h-1.24878a123.004878 123.004878 0 0 1-63.000976-17.23317l-383.438048-243.824391a38.712195 38.712195 0 0 0-61.752196 32.405854 42.583415 42.583415 0 0 0 19.980488 36.152195l8.679025 5.369756z" p-id="6045"></path><path d="M17.907512 354.641171v0.999024l387.121951 228.963903a199.804878 199.804878 0 0 0 209.420488 0l380.878049-225.467318a46.08 46.08 0 0 0 15.110244-63.31317 45.080976 45.080976 0 0 0-14.922927-14.985366l-390.36878-250.25561a168.023415 168.023415 0 0 0-191.37561-0.374634l-389.994147 250.380488a46.204878 46.204878 0 0 0-14.985365 63.313171 45.080976 45.080976 0 0 0 9.116097 10.739512zM981.21678 674.391415a35.652683 35.652683 0 0 0-24.975609 7.430244l-382.876098 240.64a124.878049 124.878049 0 0 1-63.687805 17.420487h-0.936585a123.441951 123.441951 0 0 1-63.063415-17.295609l-383.375609-240.764878a38.774634 38.774634 0 0 0-61.752196 32.530731 36.589268 36.589268 0 0 0 19.918049 32.905366l384.187317 241.201951a200.30439 200.30439 0 0 0 209.670244 0l383.812683-241.077073a41.272195 41.272195 0 0 0 20.105366-32.593171 38.649756 38.649756 0 0 0-37.026342-40.335609v-0.062439z" p-id="6046"></path></svg>